<svg version="1.1" xmlns="http://www.w3.org/2000/svg" viewBox="0 0 320 151.55570549042784" width="320" height="151.55570549042784">
  <!-- svg-source:excalidraw -->
  
  <defs>
    <style class="style-fonts">
      @font-face {
        font-family: "Virgil";
        src: url("https://excalidraw.com/Virgil.woff2");
      }
      @font-face {
        font-family: "Cascadia";
        src: url("https://excalidraw.com/Cascadia.woff2");
      }
    </style>
  </defs>
  <g stroke-opacity="0.3" fill-opacity="0.3" stroke-linecap="round" transform="translate(10 10) rotate(0 150 65.77785274521392)"><path d="M7.86 8.16 C7.86 8.16, 7.86 8.16, 7.86 8.16 M7.86 8.16 C7.86 8.16, 7.86 8.16, 7.86 8.16 M3.66 19.09 C7.98 14.44, 14.84 6.49, 18.1 2.48 M3.66 19.09 C8.84 13.21, 14.57 7.29, 18.1 2.48 M2.75 26.24 C10.31 19.13, 15.12 10.31, 24.4 1.33 M2.75 26.24 C7.52 19.48, 13.56 14.86, 24.4 1.33 M2.48 32.64 C11.25 26.07, 16.02 17.29, 30.7 0.18 M2.48 32.64 C13.74 20.09, 23.98 8.62, 30.7 0.18 M2.88 38.28 C12.46 24.62, 23.43 12.79, 34.37 2.05 M2.88 38.28 C14.16 24.86, 26.62 10.71, 34.37 2.05 M2.62 44.68 C14.79 30.9, 25.41 17.79, 39.36 2.41 M2.62 44.68 C11.34 32.96, 22.2 21.96, 39.36 2.41 M2.36 51.07 C17.21 32.27, 34.33 14.32, 45 2.02 M2.36 51.07 C18.08 34.55, 32.2 17.19, 45 2.02 M2.75 56.72 C17.91 41.12, 30.14 25.4, 49.99 2.38 M2.75 56.72 C16.35 42.51, 28.42 27.68, 49.99 2.38 M2.49 63.11 C20.46 42.53, 38.49 21.4, 55.63 1.98 M2.49 63.11 C22.58 38.18, 43.92 14.3, 55.63 1.98 M2.88 68.76 C16.38 53.7, 26.75 40.99, 60.62 2.34 M2.88 68.76 C23 46.03, 42.93 22.6, 60.62 2.34 M2.62 75.16 C15.44 58.35, 31.05 44.31, 66.26 1.95 M2.62 75.16 C25.48 50.05, 46.76 24.03, 66.26 1.95 M2.36 81.55 C28.68 51.22, 55.92 18.68, 71.25 2.31 M2.36 81.55 C27.18 50.2, 53.5 22.16, 71.25 2.31 M2.76 87.2 C24.06 62.63, 45.06 36.53, 76.89 1.91 M2.76 87.2 C24.19 64.16, 44.13 40.03, 76.89 1.91 M2.49 93.59 C31.45 60.4, 58.89 29.47, 81.88 2.27 M2.49 93.59 C27.35 63.34, 54.78 32.92, 81.88 2.27 M2.89 99.24 C36.01 59.69, 69.6 20.6, 87.52 1.88 M2.89 99.24 C21.01 77.67, 38.83 58.37, 87.52 1.88 M1.32 107.14 C28.24 76.41, 53.95 48.65, 92.51 2.24 M1.32 107.14 C24.99 78.37, 49.85 51.41, 92.51 2.24 M2.37 112.03 C34.98 77.55, 66.87 37.31, 98.15 1.85 M2.37 112.03 C38.83 71.21, 73.93 29.85, 98.15 1.85 M4.07 116.17 C26.05 88.96, 52.24 61.91, 103.14 2.21 M4.07 116.17 C37.82 76.45, 73.27 37.61, 103.14 2.21 M5.78 120.3 C30.74 92.52, 58.25 62.5, 108.78 1.81 M5.78 120.3 C26.27 95.71, 48.74 70.51, 108.78 1.81 M8.8 122.92 C40.46 88.63, 72.99 50.95, 113.77 2.17 M8.8 122.92 C34.77 95.59, 57.33 66.77, 113.77 2.17 M11.82 125.55 C37.75 95.43, 62.46 69.51, 119.41 1.78 M11.82 125.55 C51.68 81.89, 89.18 37.88, 119.41 1.78 M14.18 128.93 C40.59 97.24, 66.06 69.04, 124.4 2.14 M14.18 128.93 C42.41 95.32, 71.46 61.92, 124.4 2.14 M18.51 130.04 C55.82 84.77, 97.82 37.69, 130.04 1.74 M18.51 130.04 C42.55 102.02, 67.82 73.85, 130.04 1.74 M23.5 130.4 C50.37 96.43, 79.96 62.66, 135.03 2.1 M23.5 130.4 C58.39 90.18, 91.32 51.72, 135.03 2.1 M27.83 131.52 C51.82 102.96, 71.7 76.09, 140.67 1.71 M27.83 131.52 C56.32 98.7, 82.69 67.36, 140.67 1.71 M32.82 131.88 C57.32 103.79, 81.5 76.78, 145.66 2.07 M32.82 131.88 C67.29 94.42, 99.34 57.07, 145.66 2.07 M37.8 132.24 C78.65 88.06, 118.81 40, 150.65 2.43 M37.8 132.24 C64.51 100.44, 92.4 70.46, 150.65 2.43 M43.45 131.84 C65.69 104.4, 90.88 79.21, 156.29 2.03 M43.45 131.84 C74.38 95.1, 105.12 59.78, 156.29 2.03 M48.43 132.2 C84.27 91.21, 117.38 50.97, 161.28 2.39 M48.43 132.2 C72.36 103.3, 97.83 73.01, 161.28 2.39 M54.08 131.81 C76.38 105.22, 103.14 75.82, 166.92 2 M54.08 131.81 C99.57 80.97, 143.74 30.74, 166.92 2 M59.06 132.17 C97.83 86.05, 137.36 41.84, 171.91 2.36 M59.06 132.17 C81.57 104.26, 106.66 77.49, 171.91 2.36 M64.71 131.77 C95.27 97.53, 121.89 64.33, 177.55 1.96 M64.71 131.77 C96.59 95.01, 127.91 57.82, 177.55 1.96 M69.69 132.13 C97.35 95.7, 129.17 62.89, 182.54 2.32 M69.69 132.13 C93.48 104.55, 118.87 76.07, 182.54 2.32 M75.34 131.74 C118.99 81.04, 161.55 29.99, 188.18 1.93 M75.34 131.74 C105.82 95.52, 136.64 58.77, 188.18 1.93 M80.32 132.1 C111.2 98.13, 143.39 63.46, 193.17 2.29 M80.32 132.1 C109.43 98.93, 137.07 67.84, 193.17 2.29 M85.31 132.46 C123.78 86.08, 163.21 43.44, 198.81 1.9 M85.31 132.46 C109.79 105.18, 135.48 75.86, 198.81 1.9 M90.95 132.07 C120.16 97.85, 149.17 65.46, 203.8 2.26 M90.95 132.07 C123.74 91.98, 159.51 53.11, 203.8 2.26 M95.94 132.43 C128.27 92.8, 162.76 57.1, 209.44 1.86 M95.94 132.43 C121.74 103.38, 148.73 73, 209.44 1.86 M101.58 132.03 C135.37 92.19, 173.29 53.72, 214.43 2.22 M101.58 132.03 C145.9 81.04, 190.26 28.36, 214.43 2.22 M106.57 132.39 C138.05 94.9, 169.25 57.18, 220.07 1.83 M106.57 132.39 C143.19 89.84, 180.82 48.3, 220.07 1.83 M112.21 132 C140.2 98.75, 172.92 63.43, 225.06 2.19 M112.21 132 C149.26 89.18, 183.31 49.2, 225.06 2.19 M117.2 132.36 C160.34 82.51, 205.14 33.66, 230.7 1.79 M117.2 132.36 C145.82 100.08, 172.77 68.44, 230.7 1.79 M122.84 131.96 C157.71 91.74, 194.76 50.52, 235.69 2.15 M122.84 131.96 C151.66 97.11, 180.95 64.31, 235.69 2.15 M127.83 132.32 C162.36 88.68, 203.51 46.71, 241.33 1.76 M127.83 132.32 C171.39 80.17, 217.77 28.64, 241.33 1.76 M133.47 131.93 C176.63 82.66, 221.3 34.25, 246.32 2.12 M133.47 131.93 C159.77 104.54, 186.36 74.75, 246.32 2.12 M138.46 132.29 C175.35 90.61, 210.88 51.52, 251.96 1.72 M138.46 132.29 C172.43 92.27, 206.27 53.18, 251.96 1.72 M144.1 131.89 C186.84 84.78, 228.92 39.78, 256.95 2.08 M144.1 131.89 C187.82 80.46, 233.51 28.33, 256.95 2.08 M149.09 132.25 C190.64 81.71, 235.2 32.67, 262.59 1.69 M149.09 132.25 C190.91 85.28, 232.95 36.93, 262.59 1.69 M154.73 131.86 C189.42 91.74, 224.87 50.23, 268.89 0.54 M154.73 131.86 C195.39 83.27, 237.12 35, 268.89 0.54 M159.72 132.22 C186 103.39, 213.49 69.98, 273.22 1.65 M159.72 132.22 C195.8 92.1, 230.7 51.56, 273.22 1.65 M165.36 131.82 C188.95 102.42, 215.01 75.98, 278.21 2.01 M165.36 131.82 C199.48 92.98, 235.78 52.03, 278.21 2.01 M170.35 132.18 C192.58 106.83, 216.03 82.13, 282.54 3.13 M170.35 132.18 C207.51 91.02, 244.81 48.81, 282.54 3.13 M175.99 131.79 C201.29 101.31, 225.55 72.98, 286.21 5 M175.99 131.79 C198.97 105.38, 222.39 79.16, 286.21 5 M180.98 132.15 C211.71 96.26, 245.55 56.46, 289.89 6.87 M180.98 132.15 C217.67 91.9, 252.57 50.29, 289.89 6.87 M186.62 131.75 C214.92 100.75, 240.78 71.91, 293.56 8.74 M186.62 131.75 C214.13 102.21, 239.25 70.88, 293.56 8.74 M191.61 132.11 C230.09 84.96, 271.67 42.38, 295.27 12.87 M191.61 132.11 C225.49 95.08, 257.24 58.01, 295.27 12.87 M196.6 132.48 C232.13 93.92, 264.57 52.17, 296.98 17 M196.6 132.48 C235.35 86.87, 273.01 42.85, 296.98 17 M202.24 132.08 C237.43 90.47, 272.83 50.58, 298.68 21.14 M202.24 132.08 C238.89 88.84, 275.3 45.97, 298.68 21.14 M207.23 132.44 C236.79 97.7, 264.93 65.8, 300.39 25.27 M207.23 132.44 C226.6 111.8, 246.15 89.04, 300.39 25.27 M212.87 132.05 C249.06 94.24, 280.71 56.14, 300.13 31.67 M212.87 132.05 C241.62 98.82, 270.24 64.88, 300.13 31.67 M217.86 132.41 C242.64 101.65, 272.14 71.94, 300.52 37.31 M217.86 132.41 C240.63 107.38, 263.77 80.95, 300.52 37.31 M223.5 132.01 C244.9 108.76, 265.48 84.17, 300.26 43.71 M223.5 132.01 C242.43 111.64, 260.53 89.74, 300.26 43.71 M228.49 132.37 C246.63 109.17, 267.71 82.89, 300.66 49.35 M228.49 132.37 C254.17 102.94, 279.5 74.32, 300.66 49.35 M234.13 131.98 C256.01 107.43, 276.35 87.02, 300.39 55.75 M234.13 131.98 C255.07 108.04, 273.78 85.06, 300.39 55.75 M239.12 132.34 C256.15 115, 273.42 94.62, 300.79 61.39 M239.12 132.34 C263.23 103.75, 287.96 75.94, 300.79 61.39 M244.76 131.94 C266.66 106.55, 286.71 81.7, 300.53 67.79 M244.76 131.94 C257.12 118.2, 268.01 105.71, 300.53 67.79 M249.75 132.3 C267.39 112.79, 280.57 94.16, 300.92 73.44 M249.75 132.3 C268.33 109.59, 288.8 88.41, 300.92 73.44 M255.39 131.91 C269.85 115.75, 281.34 100.35, 300.66 79.83 M255.39 131.91 C268.99 115.67, 283.84 97.43, 300.66 79.83 M260.38 132.27 C277.62 114.5, 292.68 96.05, 301.05 85.48 M260.38 132.27 C270.7 120.4, 278.99 109.63, 301.05 85.48 M266.02 131.87 C277.03 122.23, 282.74 109.62, 300.79 91.87 M266.02 131.87 C277.39 117.38, 290.74 104.86, 300.79 91.87 M270.35 132.99 C276.02 126.34, 284.91 118.41, 301.19 97.52 M270.35 132.99 C279.79 121.27, 290.8 109.43, 301.19 97.52 M276 132.59 C288.14 121.28, 295.81 108.18, 302.89 101.65 M276 132.59 C281.83 124.7, 289.28 117.56, 302.89 101.65 M282.95 130.69 C287.97 127.09, 291.95 120.66, 301.32 109.56 M282.95 130.69 C287.27 126.7, 291.95 120.61, 301.32 109.56" stroke="#40c057" stroke-width="0.5" fill="none"></path><path d="M32 0 M32 0 C115.2 -0.21, 202.47 -0.07, 268 0 M32 0 C98.61 1.4, 165.44 1.9, 268 0 M268 0 C290.84 -1.24, 301.84 10.15, 300 32 M268 0 C291.22 -0.39, 297.73 9.4, 300 32 M300 32 C301.21 58.42, 299.69 85.61, 300 99.56 M300 32 C299.68 53.23, 299.43 75.46, 300 99.56 M300 99.56 C298.88 122.2, 289.19 133.52, 268 131.56 M300 99.56 C300.11 123.12, 290.55 131.15, 268 131.56 M268 131.56 C216.7 130.73, 164.41 132.86, 32 131.56 M268 131.56 C211.05 132.74, 153.56 132.95, 32 131.56 M32 131.56 C11.53 131.86, -1.11 122.85, 0 99.56 M32 131.56 C8.66 133.36, -0.4 120.31, 0 99.56 M0 99.56 C2.09 84.58, 1.35 70.05, 0 32 M0 99.56 C0.64 76.06, 0.7 54.76, 0 32 M0 32 C-0.03 10.49, 9.37 1.95, 32 0 M0 32 C-1.42 12.77, 9.48 1.04, 32 0" stroke="#000000" stroke-width="1" fill="none"></path></g><g stroke-linecap="round"><g transform="translate(77.27941300497605 112.01163869444224) rotate(0 88.00143927873802 -44.12029439069596)"><path d="M0.63 0.19 C8.09 -4.44, 36.91 -13.86, 44.01 -28.63 C51.1 -43.39, 39.72 -87.84, 43.21 -88.42 C46.7 -89.01, 45.35 -33.11, 64.95 -32.14 C84.54 -31.17, 143.17 -82.94, 160.78 -82.58 C178.39 -82.21, 176.81 -43.66, 170.62 -29.95 C164.44 -16.24, 134.48 0.28, 123.65 -0.32 C112.81 -0.92, 104.7 -25.61, 105.63 -33.55 C106.55 -41.49, 121.59 -45.75, 129.2 -47.98 C136.82 -50.22, 148.83 -51.27, 151.33 -46.96 C153.83 -42.65, 148.39 -27.18, 144.2 -22.14 C140.02 -17.09, 131.21 -15.72, 126.22 -16.68 C121.22 -17.64, 116.04 -26.1, 114.23 -27.9 M-0.5 -0.76 C6.94 -5.61, 36.31 -15.69, 43.44 -30.14 C50.57 -44.6, 38.68 -87.26, 42.26 -87.49 C45.84 -87.72, 44.85 -32.34, 64.93 -31.53 C85.01 -30.72, 144.98 -82.76, 162.73 -82.63 C180.48 -82.49, 178.36 -44.24, 171.43 -30.71 C164.49 -17.18, 132.29 -0.98, 121.12 -1.45 C109.96 -1.92, 103.29 -26.1, 104.43 -33.54 C105.57 -40.97, 119.98 -44.26, 127.96 -46.06 C135.95 -47.86, 149.62 -48.52, 152.35 -44.35 C155.09 -40.19, 148.39 -25.73, 144.38 -21.09 C140.38 -16.46, 133.35 -15.3, 128.31 -16.54 C123.27 -17.78, 116.37 -26.73, 114.14 -28.52" stroke="#383838" stroke-width="1" fill="none"></path></g></g><mask></mask><g stroke-linecap="round"><g transform="translate(27.75432138883525 17.517723326299574) rotate(0 4.244923020508452 6.162985495961607)"><path d="M0.19 0.73 C1.95 2.44, 8.4 9.23, 9.66 10.9 M-1.17 0.07 C0.61 1.9, 7.41 10.3, 9.32 12.26" stroke="#495057" stroke-width="1" fill="none"></path></g></g><mask></mask><g stroke-linecap="round"><g transform="translate(29.273516085655046 29.367440802439887) rotate(0 -3.256238480752245 4.514938527648724)"><path d="M0.73 1.16 C-0.39 2.32, -4.95 6.19, -6.12 7.16 M-0.34 0.72 C-1.71 2, -6.08 7.13, -7.24 8.31" stroke="#495057" stroke-width="1" fill="none"></path></g></g><mask></mask></svg>