<svg version="1.1" xmlns="http://www.w3.org/2000/svg" viewBox="0 0 320 151.55570549042784" width="320" height="151.55570549042784">
  <!-- svg-source:excalidraw -->
  
  <defs>
    <style class="style-fonts">
      @font-face {
        font-family: "Virgil";
        src: url("https://excalidraw.com/Virgil.woff2");
      }
      @font-face {
        font-family: "Cascadia";
        src: url("https://excalidraw.com/Cascadia.woff2");
      }
    </style>
  </defs>
  <g stroke-opacity="0.3" fill-opacity="0.3" stroke-linecap="round" transform="translate(10 10) rotate(0 150 65.77785274521392)"><path d="M7.86 8.16 C7.86 8.16, 7.86 8.16, 7.86 8.16 M7.86 8.16 C7.86 8.16, 7.86 8.16, 7.86 8.16 M3.66 19.09 C9.76 12.45, 12.22 9.37, 18.1 2.48 M3.66 19.09 C8.9 12.35, 15.38 5.94, 18.1 2.48 M2.75 26.24 C9.49 21.35, 12.85 13.98, 24.4 1.33 M2.75 26.24 C9.11 19.32, 15.09 13.67, 24.4 1.33 M2.48 32.64 C11.95 24.99, 21.04 12, 30.7 0.18 M2.48 32.64 C13.3 20.84, 21.68 9.17, 30.7 0.18 M2.88 38.28 C14.02 26.51, 27.2 9.86, 34.37 2.05 M2.88 38.28 C12.81 24.84, 25.13 13.63, 34.37 2.05 M2.62 44.68 C12.04 32.11, 24.4 18.05, 39.36 2.41 M2.62 44.68 C10.52 34.74, 18.53 27.03, 39.36 2.41 M2.36 51.07 C11.36 41.14, 23.04 26.76, 45 2.02 M2.36 51.07 C17.35 33.42, 33.82 13.97, 45 2.02 M2.75 56.72 C19.73 37.28, 34.06 19.57, 49.99 2.38 M2.75 56.72 C20.96 35.49, 40.54 14.3, 49.99 2.38 M2.49 63.11 C14.52 49.69, 27.81 35.77, 55.63 1.98 M2.49 63.11 C23.88 38.53, 43.9 15.09, 55.63 1.98 M2.88 68.76 C26.67 42.32, 48.5 18.67, 60.62 2.34 M2.88 68.76 C13.75 54.26, 25.8 40.16, 60.62 2.34 M2.62 75.16 C13.88 62.33, 28.12 46.67, 66.26 1.95 M2.62 75.16 C21.54 50.89, 42.83 28.71, 66.26 1.95 M2.36 81.55 C17.18 61.8, 34.56 44.4, 71.25 2.31 M2.36 81.55 C20.9 59.88, 41.29 38.41, 71.25 2.31 M2.76 87.2 C20.15 69.25, 36.2 50.54, 76.89 1.91 M2.76 87.2 C30.15 55.05, 57.89 24.61, 76.89 1.91 M2.49 93.59 C27.96 63.08, 51.32 36.71, 81.88 2.27 M2.49 93.59 C25.19 68.57, 47.34 42.79, 81.88 2.27 M2.89 99.24 C33.26 66.38, 61.64 31.46, 87.52 1.88 M2.89 99.24 C34.4 62.18, 68.55 24.75, 87.52 1.88 M1.32 107.14 C24.15 81.06, 50.91 50.22, 92.51 2.24 M1.32 107.14 C37.84 67.06, 71.69 27.95, 92.51 2.24 M2.37 112.03 C30.55 76.47, 62.7 45.99, 98.15 1.85 M2.37 112.03 C37.71 72.27, 71.84 32.59, 98.15 1.85 M4.07 116.17 C38.22 78.03, 73.6 39.41, 103.14 2.21 M4.07 116.17 C27.94 87.33, 52.49 58.34, 103.14 2.21 M5.78 120.3 C48.09 71.38, 87.2 25.29, 108.78 1.81 M5.78 120.3 C38.29 82.02, 70.75 44.42, 108.78 1.81 M8.8 122.92 C30.08 97.23, 52.13 74.32, 113.77 2.17 M8.8 122.92 C29.89 97.09, 51.21 74.53, 113.77 2.17 M11.82 125.55 C49.26 81.59, 86.44 38.82, 119.41 1.78 M11.82 125.55 C53.6 77.25, 94.1 31.11, 119.41 1.78 M14.18 128.93 C55.14 82.89, 93.2 35.15, 124.4 2.14 M14.18 128.93 C41.49 96.83, 69.89 64.74, 124.4 2.14 M18.51 130.04 C55.57 88.57, 91.7 46.86, 130.04 1.74 M18.51 130.04 C58.12 82.73, 100.2 35.08, 130.04 1.74 M23.5 130.4 C63.07 85.88, 97.52 44.62, 135.03 2.1 M23.5 130.4 C56.08 92.66, 90.87 52.3, 135.03 2.1 M27.83 131.52 C61.57 93.18, 95.85 51.44, 140.67 1.71 M27.83 131.52 C66.98 86.98, 105.91 42.4, 140.67 1.71 M32.82 131.88 C60.15 99.63, 90.05 66.25, 145.66 2.07 M32.82 131.88 C69.39 88.42, 104.56 47.2, 145.66 2.07 M37.8 132.24 C69.38 98.37, 98.28 65.33, 150.65 2.43 M37.8 132.24 C71.48 95.54, 102.96 59.19, 150.65 2.43 M43.45 131.84 C69.35 102.27, 98.11 70.28, 156.29 2.03 M43.45 131.84 C84.23 84.9, 126.3 37.31, 156.29 2.03 M48.43 132.2 C74.83 102.31, 102.14 74.11, 161.28 2.39 M48.43 132.2 C75.89 99.63, 103.08 68.81, 161.28 2.39 M54.08 131.81 C90.58 90.94, 126.34 52.6, 166.92 2 M54.08 131.81 C96.24 81.64, 139.78 31.61, 166.92 2 M59.06 132.17 C82.19 102.07, 108.65 76.41, 171.91 2.36 M59.06 132.17 C96.44 89.4, 134.68 45.57, 171.91 2.36 M64.71 131.77 C88.93 104.28, 115.67 74.59, 177.55 1.96 M64.71 131.77 C107.68 83.49, 150.1 34.29, 177.55 1.96 M69.69 132.13 C102.84 96.27, 136.32 57.93, 182.54 2.32 M69.69 132.13 C113.19 83, 154.03 33.13, 182.54 2.32 M75.34 131.74 C119.48 80.22, 166.82 28.61, 188.18 1.93 M75.34 131.74 C104.2 97.59, 134.32 63.26, 188.18 1.93 M80.32 132.1 C111.11 92.4, 146.11 56.77, 193.17 2.29 M80.32 132.1 C107.54 98.94, 137.88 64.99, 193.17 2.29 M85.31 132.46 C111.07 99.08, 139.72 68.61, 198.81 1.9 M85.31 132.46 C107.75 104.35, 131.69 79.02, 198.81 1.9 M90.95 132.07 C126.35 90.27, 164.7 46.97, 203.8 2.26 M90.95 132.07 C131.51 86.15, 171.93 40.59, 203.8 2.26 M95.94 132.43 C118.52 103.91, 146.73 75.61, 209.44 1.86 M95.94 132.43 C129.08 94.87, 160.53 56.59, 209.44 1.86 M101.58 132.03 C134.85 91.61, 169.25 52, 214.43 2.22 M101.58 132.03 C136.98 89.53, 172.63 48.62, 214.43 2.22 M106.57 132.39 C152.89 81.65, 198.09 27.25, 220.07 1.83 M106.57 132.39 C132.73 100.02, 159.15 69.89, 220.07 1.83 M112.21 132 C149.33 89.43, 184.06 46.23, 225.06 2.19 M112.21 132 C143.05 95.88, 175.97 57.24, 225.06 2.19 M117.2 132.36 C144.39 100.41, 172.92 70.56, 230.7 1.79 M117.2 132.36 C149.35 95.48, 182.45 56.98, 230.7 1.79 M122.84 131.96 C162.66 86.66, 201.08 41.46, 235.69 2.15 M122.84 131.96 C154.19 96.33, 183.88 60.31, 235.69 2.15 M127.83 132.32 C157.86 96.12, 184.64 63.35, 241.33 1.76 M127.83 132.32 C167.5 85.6, 207.08 40.26, 241.33 1.76 M133.47 131.93 C171.75 87.99, 206.49 44.83, 246.32 2.12 M133.47 131.93 C175.38 84.62, 217.97 35.78, 246.32 2.12 M138.46 132.29 C180.76 84.12, 223.28 34.73, 251.96 1.72 M138.46 132.29 C182.92 79.36, 228.05 28.11, 251.96 1.72 M144.1 131.89 C172.04 98.06, 199.02 65, 256.95 2.08 M144.1 131.89 C184.17 84.98, 224.49 37.48, 256.95 2.08 M149.09 132.25 C183.28 88.21, 221.05 45.96, 262.59 1.69 M149.09 132.25 C185.64 90.61, 221.23 49.29, 262.59 1.69 M154.73 131.86 C191.39 90.6, 222.97 50.86, 268.89 0.54 M154.73 131.86 C189.38 91.37, 225.06 51.96, 268.89 0.54 M159.72 132.22 C187.58 98.76, 217.66 62.18, 273.22 1.65 M159.72 132.22 C187.11 100.38, 215.79 69.03, 273.22 1.65 M165.36 131.82 C198.83 93.06, 235.2 56.31, 278.21 2.01 M165.36 131.82 C203.55 86.13, 244.6 39.49, 278.21 2.01 M170.35 132.18 C213.97 86.15, 252.6 38.65, 282.54 3.13 M170.35 132.18 C195.41 103.66, 221.77 74.36, 282.54 3.13 M175.99 131.79 C207.68 94.26, 239.14 58.42, 286.21 5 M175.99 131.79 C210.01 94.35, 244.44 54.59, 286.21 5 M180.98 132.15 C209.02 101.54, 234.52 74.31, 289.89 6.87 M180.98 132.15 C221.44 85.6, 258.81 42.4, 289.89 6.87 M186.62 131.75 C221.23 89.86, 253.88 51.11, 293.56 8.74 M186.62 131.75 C217.6 97.57, 249.09 61.83, 293.56 8.74 M191.61 132.11 C219.37 99.06, 251.73 65.69, 295.27 12.87 M191.61 132.11 C218.79 102.14, 242.7 72.04, 295.27 12.87 M196.6 132.48 C222.74 101.88, 250.13 70.09, 296.98 17 M196.6 132.48 C223.12 101.42, 250.6 68.47, 296.98 17 M202.24 132.08 C234.91 96.31, 266.65 59.77, 298.68 21.14 M202.24 132.08 C237.31 92.1, 272.38 51.94, 298.68 21.14 M207.23 132.44 C226.86 108.68, 247.34 86.25, 300.39 25.27 M207.23 132.44 C238.32 96.34, 269.23 61.88, 300.39 25.27 M212.87 132.05 C233.75 108.1, 251.64 86.13, 300.13 31.67 M212.87 132.05 C236.48 105.23, 259.67 78.69, 300.13 31.67 M217.86 132.41 C242.12 106.3, 264.4 78.97, 300.52 37.31 M217.86 132.41 C234.95 113.94, 250.66 93.84, 300.52 37.31 M223.5 132.01 C243.78 105.47, 263.42 82.16, 300.26 43.71 M223.5 132.01 C254.12 98.19, 283.13 62.66, 300.26 43.71 M228.49 132.37 C256.12 101.02, 282.69 68.93, 300.66 49.35 M228.49 132.37 C251.4 105.14, 276.46 78.94, 300.66 49.35 M234.13 131.98 C257.16 105.99, 278.84 81.42, 300.39 55.75 M234.13 131.98 C251.26 112.26, 268.02 93.18, 300.39 55.75 M239.12 132.34 C257.75 111.71, 275.83 91.83, 300.79 61.39 M239.12 132.34 C252.17 117.89, 264.74 103.7, 300.79 61.39 M244.76 131.94 C262.51 111.5, 276.54 91.6, 300.53 67.79 M244.76 131.94 C258.79 113.46, 274.36 97.08, 300.53 67.79 M249.75 132.3 C268.27 112.96, 284.05 90.51, 300.92 73.44 M249.75 132.3 C261.52 117.96, 275.09 104.95, 300.92 73.44 M255.39 131.91 C268.76 113.89, 285.2 98.59, 300.66 79.83 M255.39 131.91 C269.36 115.44, 281.57 99.2, 300.66 79.83 M260.38 132.27 C276.51 116.73, 288.08 98.05, 301.05 85.48 M260.38 132.27 C272.48 118.25, 284.3 105.81, 301.05 85.48 M266.02 131.87 C278.15 119.99, 291.27 104.56, 300.79 91.87 M266.02 131.87 C277.11 118.86, 288.4 106.42, 300.79 91.87 M270.35 132.99 C279.87 122.67, 289.09 109.04, 301.19 97.52 M270.35 132.99 C279.74 121.6, 288.88 110.06, 301.19 97.52 M276 132.59 C285.97 121.97, 293.86 112.84, 302.89 101.65 M276 132.59 C285.75 121.84, 295.66 109.87, 302.89 101.65 M282.95 130.69 C286.99 126.4, 290.49 119.19, 301.32 109.56 M282.95 130.69 C289.63 122.91, 295.22 116.98, 301.32 109.56" stroke="#fab005" stroke-width="0.5" fill="none"></path><path d="M32 0 M32 0 C93.27 -0.34, 152.43 0.24, 268 0 M32 0 C124.65 0.78, 217.44 -0.07, 268 0 M268 0 C291.19 1.88, 301.99 11.87, 300 32 M268 0 C287.92 -1.85, 299.29 10.84, 300 32 M300 32 C300.5 51.6, 299.38 73.28, 300 99.56 M300 32 C301.3 55.01, 299.61 78.5, 300 99.56 M300 99.56 C301.96 121.17, 287.91 131.37, 268 131.56 M300 99.56 C299.54 120.8, 287.3 129.73, 268 131.56 M268 131.56 C191.35 131.01, 116.99 132.18, 32 131.56 M268 131.56 C205.74 129.27, 145.03 130.48, 32 131.56 M32 131.56 C9.9 129.91, -1.06 121.38, 0 99.56 M32 131.56 C9.69 133.78, 0.37 119.02, 0 99.56 M0 99.56 C1.83 82.82, 1.57 61.34, 0 32 M0 99.56 C0.78 81.96, 0.04 65.79, 0 32 M0 32 C-0.98 8.94, 11.51 1.08, 32 0 M0 32 C1.57 10.94, 12.44 0.03, 32 0" stroke="#000000" stroke-width="1" fill="none"></path></g><g stroke-linecap="round"><g transform="translate(25.110794402981355 18.746721504230266) rotate(0 3.2737610450457737 5.8836752278674)"><path d="M-0.77 -1.1 C0.54 1.04, 5.95 10.6, 7.31 12.87 M1.03 0.93 C2.29 2.7, 5.7 8.78, 6.71 10.93" stroke="#495057" stroke-width="1" fill="none"></path></g></g><mask></mask><g stroke-linecap="round"><g transform="translate(21.194513156584435 38.719749885083615) rotate(0 3.6262084823545706 -4.572420549821857)"><path d="M0.68 0.22 C2.1 -0.85, 6.58 -6.35, 7.68 -7.58 M-0.43 -0.72 C0.94 -2.02, 5.72 -7.99, 6.86 -9.36" stroke="#495057" stroke-width="1" fill="none"></path></g></g><mask></mask><g stroke-linecap="round"><g transform="translate(77.02542325539491 112.01163869444224) rotate(0 86.0318965919256 -43.113209493383096)"><path d="M-0.45 1.2 C1.02 -7.15, 0.59 -40.14, 9.47 -51.06 C18.35 -61.98, 42.17 -59.91, 52.83 -64.33 C63.5 -68.74, 61.22 -74.18, 73.47 -77.58 C85.72 -80.97, 114.79 -85.89, 126.32 -84.69 C137.85 -83.5, 135.34 -81.78, 142.67 -70.41 C150.01 -59.05, 178.47 -19.13, 170.33 -16.52 C162.2 -13.91, 105.84 -57.65, 93.87 -54.78 C81.9 -51.9, 103.15 -1.24, 98.5 0.7 C93.84 2.64, 71.35 -35.87, 65.94 -43.13 M1.51 0.78 C3.28 -7.37, 2.66 -38.95, 11.6 -50.09 C20.54 -61.24, 44.71 -61.72, 55.13 -66.08 C65.55 -70.45, 62.48 -72.76, 74.13 -76.3 C85.78 -79.85, 113.37 -88.22, 125.03 -87.36 C136.69 -86.51, 136.43 -83.32, 144.08 -71.19 C151.73 -59.06, 179.4 -17.21, 170.92 -14.59 C162.44 -11.96, 105.01 -57.84, 93.2 -55.44 C81.4 -53.04, 105.02 -2.12, 100.07 -0.19 C95.12 1.74, 69.04 -36.9, 63.5 -43.86" stroke="#383838" stroke-width="1" fill="none"></path></g></g><mask></mask></svg>