<svg version="1.1" xmlns="http://www.w3.org/2000/svg" viewBox="0 0 320 151.55570549042784" width="320" height="151.55570549042784">
  <!-- svg-source:excalidraw -->
  
  <defs>
    <style class="style-fonts">
      @font-face {
        font-family: "Virgil";
        src: url("https://excalidraw.com/Virgil.woff2");
      }
      @font-face {
        font-family: "Cascadia";
        src: url("https://excalidraw.com/Cascadia.woff2");
      }
    </style>
  </defs>
  <g stroke-opacity="0.3" fill-opacity="0.3" stroke-linecap="round" transform="translate(10 10) rotate(0 150 65.77785274521392)"><path d="M7.86 8.16 C7.86 8.16, 7.86 8.16, 7.86 8.16 M7.86 8.16 C7.86 8.16, 7.86 8.16, 7.86 8.16 M3.66 19.09 C10.83 13.49, 12.74 8.51, 18.1 2.48 M3.66 19.09 C9.01 13.39, 13.17 7.81, 18.1 2.48 M2.75 26.24 C9.79 15.91, 17.06 6.63, 24.4 1.33 M2.75 26.24 C11.95 16.89, 20.11 8.43, 24.4 1.33 M2.48 32.64 C8.45 27.43, 13.57 20.34, 30.7 0.18 M2.48 32.64 C8.42 24.56, 16.56 17.72, 30.7 0.18 M2.88 38.28 C16.53 25.68, 26.21 8.87, 34.37 2.05 M2.88 38.28 C13.06 26.79, 22.63 17.27, 34.37 2.05 M2.62 44.68 C16.34 30.58, 28.88 16.28, 39.36 2.41 M2.62 44.68 C11.6 35.32, 19.3 25.08, 39.36 2.41 M2.36 51.07 C18.17 33.65, 34.57 15.54, 45 2.02 M2.36 51.07 C10.97 40.88, 19.25 29.5, 45 2.02 M2.75 56.72 C20.05 37.34, 35.37 17.53, 49.99 2.38 M2.75 56.72 C18.19 38.83, 32.28 22.65, 49.99 2.38 M2.49 63.11 C20.21 42.53, 35.59 22.27, 55.63 1.98 M2.49 63.11 C16.58 47.18, 29.94 32.48, 55.63 1.98 M2.88 68.76 C15.99 52, 28.74 38.97, 60.62 2.34 M2.88 68.76 C20.16 48.94, 37.96 28.57, 60.62 2.34 M2.62 75.16 C18.56 55.89, 37.12 38.23, 66.26 1.95 M2.62 75.16 C16.69 59.12, 31.73 42.35, 66.26 1.95 M2.36 81.55 C16.76 64.08, 30.57 48.37, 71.25 2.31 M2.36 81.55 C17.59 62.95, 32.69 45.43, 71.25 2.31 M2.76 87.2 C29.32 55.78, 53.31 30.16, 76.89 1.91 M2.76 87.2 C25.63 61.86, 46.61 36.36, 76.89 1.91 M2.49 93.59 C34.36 57.62, 65.93 19.96, 81.88 2.27 M2.49 93.59 C28.58 63.6, 55.24 32.12, 81.88 2.27 M2.89 99.24 C28.64 71.23, 51.81 39.62, 87.52 1.88 M2.89 99.24 C27.81 69.4, 54.56 42.25, 87.52 1.88 M1.32 107.14 C36.17 65.9, 74.29 24.33, 92.51 2.24 M1.32 107.14 C29.43 73.86, 57.97 40.49, 92.51 2.24 M2.37 112.03 C32.34 78.35, 61.47 44.6, 98.15 1.85 M2.37 112.03 C26.46 83.47, 51.53 56.41, 98.15 1.85 M4.07 116.17 C28.91 85.71, 55.17 58.52, 103.14 2.21 M4.07 116.17 C28.99 86.97, 53.92 58.57, 103.14 2.21 M5.78 120.3 C32.2 90.55, 59.73 59.92, 108.78 1.81 M5.78 120.3 C30.1 94.13, 50.88 67.13, 108.78 1.81 M8.8 122.92 C46.97 78.76, 84.4 34.39, 113.77 2.17 M8.8 122.92 C34.17 93.7, 60.46 64.42, 113.77 2.17 M11.82 125.55 C38.73 95.93, 67.46 62.03, 119.41 1.78 M11.82 125.55 C40.38 94.1, 68.44 61.19, 119.41 1.78 M14.18 128.93 C50.76 85.22, 88.28 40.53, 124.4 2.14 M14.18 128.93 C39.87 98.32, 67.12 68.14, 124.4 2.14 M18.51 130.04 C58.38 82.16, 99.2 38.82, 130.04 1.74 M18.51 130.04 C49.19 94.57, 81 58, 130.04 1.74 M23.5 130.4 C58.87 89.87, 93.41 49.12, 135.03 2.1 M23.5 130.4 C66.93 82.78, 107.27 34.28, 135.03 2.1 M27.83 131.52 C57.76 96.48, 87.96 61.04, 140.67 1.71 M27.83 131.52 C68.95 85.52, 110.03 38.33, 140.67 1.71 M32.82 131.88 C63.92 97.12, 95.17 58.57, 145.66 2.07 M32.82 131.88 C56.93 101.49, 81.95 72.4, 145.66 2.07 M37.8 132.24 C81.87 82.82, 122.15 35.63, 150.65 2.43 M37.8 132.24 C67.59 100.78, 94.7 68.86, 150.65 2.43 M43.45 131.84 C79.33 91.27, 117.2 46.63, 156.29 2.03 M43.45 131.84 C83.31 84.02, 124.68 37.71, 156.29 2.03 M48.43 132.2 C86.46 86.47, 128.3 39.55, 161.28 2.39 M48.43 132.2 C81.19 95.66, 112.19 59.41, 161.28 2.39 M54.08 131.81 C96.79 77.63, 144.73 26.64, 166.92 2 M54.08 131.81 C75.58 105.96, 99.07 79.22, 166.92 2 M59.06 132.17 C100.57 86.52, 140.12 41.66, 171.91 2.36 M59.06 132.17 C82.99 104.62, 106.92 74.76, 171.91 2.36 M64.71 131.77 C103.41 86.35, 144.62 36.65, 177.55 1.96 M64.71 131.77 C105.93 81.99, 148.44 35.4, 177.55 1.96 M69.69 132.13 C92.9 102.89, 118.96 76.97, 182.54 2.32 M69.69 132.13 C97.68 98.46, 125.99 67.7, 182.54 2.32 M75.34 131.74 C114.38 90.04, 147.51 48.68, 188.18 1.93 M75.34 131.74 C109.03 92.62, 143.3 53.9, 188.18 1.93 M80.32 132.1 C107.74 98.23, 136.12 64.79, 193.17 2.29 M80.32 132.1 C122.87 83.73, 164.97 36.3, 193.17 2.29 M85.31 132.46 C121.77 93.45, 155.76 54.05, 198.81 1.9 M85.31 132.46 C113.78 98.08, 142.95 65.61, 198.81 1.9 M90.95 132.07 C121.61 95.76, 152.56 60.35, 203.8 2.26 M90.95 132.07 C114.7 104.47, 136.96 77.61, 203.8 2.26 M95.94 132.43 C138.95 82.88, 185.63 31.72, 209.44 1.86 M95.94 132.43 C129.29 92.67, 164 53.54, 209.44 1.86 M101.58 132.03 C140.49 86.38, 174.43 46.02, 214.43 2.22 M101.58 132.03 C144.63 80.42, 189.31 30.14, 214.43 2.22 M106.57 132.39 C143.31 90.26, 181.84 43.2, 220.07 1.83 M106.57 132.39 C146.27 85.68, 188.61 36.72, 220.07 1.83 M112.21 132 C135.5 105.33, 157.08 77.9, 225.06 2.19 M112.21 132 C155.96 82.92, 197.93 35.33, 225.06 2.19 M117.2 132.36 C141.94 104.71, 166.53 74.71, 230.7 1.79 M117.2 132.36 C157.13 87.65, 194.58 41.24, 230.7 1.79 M122.84 131.96 C161.59 86.4, 200.55 42.21, 235.69 2.15 M122.84 131.96 C152.19 98.18, 180.75 65.15, 235.69 2.15 M127.83 132.32 C166.16 87.89, 205.99 40.28, 241.33 1.76 M127.83 132.32 C170.27 82.82, 212.52 34.31, 241.33 1.76 M133.47 131.93 C160.98 99.33, 184.46 68.38, 246.32 2.12 M133.47 131.93 C169.26 93.02, 202.81 51.83, 246.32 2.12 M138.46 132.29 C177.68 86.26, 215.29 44.58, 251.96 1.72 M138.46 132.29 C162.41 104.93, 186.09 78.41, 251.96 1.72 M144.1 131.89 C177.81 88.18, 213.82 45.77, 256.95 2.08 M144.1 131.89 C173.86 99.18, 202.34 65.94, 256.95 2.08 M149.09 132.25 C179.72 91.61, 213.69 54.78, 262.59 1.69 M149.09 132.25 C174.99 102.61, 201.94 72.13, 262.59 1.69 M154.73 131.86 C186.46 99.14, 215.11 62.75, 268.89 0.54 M154.73 131.86 C180 101.67, 206.42 72.6, 268.89 0.54 M159.72 132.22 C202.08 82.37, 248.22 30.11, 273.22 1.65 M159.72 132.22 C185.11 102.9, 210.33 74.38, 273.22 1.65 M165.36 131.82 C191.7 99.45, 218.09 67.9, 278.21 2.01 M165.36 131.82 C208.96 82.67, 252.31 33.11, 278.21 2.01 M170.35 132.18 C202.26 96.1, 230.34 61.03, 282.54 3.13 M170.35 132.18 C215.36 82.74, 260.08 29.87, 282.54 3.13 M175.99 131.79 C207.62 94.26, 237.82 57.58, 286.21 5 M175.99 131.79 C206.66 96.56, 235.44 63.11, 286.21 5 M180.98 132.15 C212.45 97.91, 243.69 60.51, 289.89 6.87 M180.98 132.15 C223.11 84.07, 265.09 35.84, 289.89 6.87 M186.62 131.75 C222.56 90.5, 261.77 45.79, 293.56 8.74 M186.62 131.75 C217.79 95.48, 248.27 57.86, 293.56 8.74 M191.61 132.11 C217.75 100.27, 246.52 71.86, 295.27 12.87 M191.61 132.11 C215.73 104.93, 240.5 77.07, 295.27 12.87 M196.6 132.48 C217.7 104.94, 238.1 82.39, 296.98 17 M196.6 132.48 C223.69 101.87, 250.04 70.67, 296.98 17 M202.24 132.08 C229.56 101.75, 254.23 69.08, 298.68 21.14 M202.24 132.08 C221.37 107.72, 242.08 85.48, 298.68 21.14 M207.23 132.44 C245.44 87.64, 280.94 45.15, 300.39 25.27 M207.23 132.44 C244.5 88.54, 281.76 45.57, 300.39 25.27 M212.87 132.05 C238.83 96.97, 268.29 65.67, 300.13 31.67 M212.87 132.05 C249.05 92.52, 282.57 52.21, 300.13 31.67 M217.86 132.41 C240.59 105.87, 259.21 81.39, 300.52 37.31 M217.86 132.41 C245.65 99.15, 275.59 66.23, 300.52 37.31 M223.5 132.01 C246.61 107.16, 267.61 83.75, 300.26 43.71 M223.5 132.01 C246.01 104.37, 269.54 78.14, 300.26 43.71 M228.49 132.37 C243.95 110.77, 264.61 89.83, 300.66 49.35 M228.49 132.37 C255.62 100.9, 283.66 69.84, 300.66 49.35 M234.13 131.98 C252.87 113.66, 266.67 93.12, 300.39 55.75 M234.13 131.98 C250.75 113.42, 266.95 92.9, 300.39 55.75 M239.12 132.34 C257.7 109.22, 278.42 88.47, 300.79 61.39 M239.12 132.34 C260.38 107.3, 282.12 82.66, 300.79 61.39 M244.76 131.94 C262.2 112.57, 279.57 93.37, 300.53 67.79 M244.76 131.94 C265.34 107.48, 286.33 83.27, 300.53 67.79 M249.75 132.3 C262.9 119.41, 273.51 102.43, 300.92 73.44 M249.75 132.3 C269.72 109.7, 291.12 86.22, 300.92 73.44 M255.39 131.91 C269.74 114.43, 284.47 97.97, 300.66 79.83 M255.39 131.91 C266.71 118.68, 277.9 107.52, 300.66 79.83 M260.38 132.27 C275.82 114.61, 289.21 96.54, 301.05 85.48 M260.38 132.27 C270.32 123.38, 277.91 112.73, 301.05 85.48 M266.02 131.87 C276.02 117.86, 287.69 108.68, 300.79 91.87 M266.02 131.87 C274.82 122.33, 281.74 113.1, 300.79 91.87 M270.35 132.99 C278.43 125.31, 284.56 115.98, 301.19 97.52 M270.35 132.99 C280.9 120.62, 292.51 107.14, 301.19 97.52 M276 132.59 C286.48 124.08, 295.77 114.01, 302.89 101.65 M276 132.59 C284.24 121.68, 294.29 111.32, 302.89 101.65 M282.95 130.69 C289.01 124.53, 296.84 117.39, 301.32 109.56 M282.95 130.69 C289.41 123.6, 296.81 116.16, 301.32 109.56" stroke="#7950f2" stroke-width="0.5" fill="none"></path><path d="M32 0 M32 0 C107.24 -0.37, 183.61 1.75, 268 0 M32 0 C120.89 -0.91, 209.33 -0.62, 268 0 M268 0 C287.47 0.27, 299.45 11.84, 300 32 M268 0 C289.24 -0.23, 298.82 8.95, 300 32 M300 32 C300.86 49.21, 298.46 63.92, 300 99.56 M300 32 C299.53 47.4, 300.7 62.69, 300 99.56 M300 99.56 C301.57 120.3, 288.51 132.92, 268 131.56 M300 99.56 C300.64 121.5, 288.19 129.56, 268 131.56 M268 131.56 C213.86 131.71, 158.54 131.7, 32 131.56 M268 131.56 C213.08 131.19, 158.87 131.39, 32 131.56 M32 131.56 C11.25 131.1, 1.19 121.95, 0 99.56 M32 131.56 C11.19 129.95, 0.36 122.95, 0 99.56 M0 99.56 C0.57 74.9, 1.95 47.32, 0 32 M0 99.56 C0.7 82.21, 1.05 65.68, 0 32 M0 32 C0.46 12.63, 9.85 -1.01, 32 0 M0 32 C0.01 10.6, 10.93 -0.04, 32 0" stroke="#000000" stroke-width="1" fill="none"></path></g><g stroke-linecap="round"><g transform="translate(77.27941300497605 112.01163869444218) rotate(0 75.48422581626443 -33.577189849154635)"><path d="M0.92 -0.76 C8.32 -7.6, 30.31 -41.21, 43.31 -41.07 C56.31 -40.92, 75.16 -1.42, 78.91 0.11 C82.66 1.65, 61.67 -20.51, 65.79 -31.86 C69.91 -43.2, 89.43 -73.41, 103.64 -67.95 C117.85 -62.49, 143.3 -10.43, 151.02 0.89 M-0.05 1.45 C7.35 -5.19, 29.74 -39.01, 42.77 -39.56 C55.81 -40.12, 74.23 -3.29, 78.14 -1.88 C82.05 -0.47, 62.11 -20.22, 66.21 -31.1 C70.31 -41.97, 88.9 -72.33, 102.74 -67.11 C116.57 -61.89, 141.28 -10.73, 149.24 0.21" stroke="#383838" stroke-width="1" fill="none"></path></g></g><mask></mask><g stroke-linecap="round"><g transform="translate(27.75432138883525 17.51772332629963) rotate(0 3.809625262269151 5.356136147751798)"><path d="M-0.78 -0.14 C0.7 1.46, 6.67 8.64, 8.4 10.71 M1 -1.25 C2.36 1.02, 5.99 10.02, 7.4 11.96" stroke="#495057" stroke-width="1" fill="none"></path></g></g><mask></mask><g stroke-linecap="round"><g transform="translate(29.273516085654933 29.367440802439887) rotate(0 -2.423224819676875 3.313847891060121)"><path d="M-0.36 -0.5 C-1.53 0.87, -5.63 5.75, -6.5 7.25 M1.65 -1.81 C0.82 -0.21, -2.85 7.06, -4.17 8.44" stroke="#495057" stroke-width="1" fill="none"></path></g></g><mask></mask></svg>