<svg version="1.1" xmlns="http://www.w3.org/2000/svg" viewBox="0 0 106.76107151082942 54.056012669917266" width="106.76107151082942" height="54.056012669917266">
  <!-- svg-source:excalidraw -->
  
  <defs>
    <style class="style-fonts">
      @font-face {
        font-family: "Virgil";
        src: url("https://excalidraw.com/Virgil.woff2");
      }
      @font-face {
        font-family: "Cascadia";
        src: url("https://excalidraw.com/Cascadia.woff2");
      }
    </style>
  </defs>
  <g stroke-linecap="round" transform="translate(10 10) rotate(0 43.38053575541471 17.028006334958633)"><path d="M8.51 0 M8.51 0 C25.85 -0.64, 45.72 0.89, 78.25 0 M8.51 0 C33.66 0.01, 60.33 -0.52, 78.25 0 M78.25 0 C83.49 -1.6, 85.85 3.75, 86.76 8.51 M78.25 0 C84.13 -1.98, 86.21 0.68, 86.76 8.51 M86.76 8.51 C88.47 12.94, 88.17 19.03, 86.76 25.54 M86.76 8.51 C86.42 14.26, 87.29 20.36, 86.76 25.54 M86.76 25.54 C84.81 31.73, 82.9 32.17, 78.25 34.06 M86.76 25.54 C84.54 29.59, 83.62 32.79, 78.25 34.06 M78.25 34.06 C61.23 33.01, 48.71 34.43, 8.51 34.06 M78.25 34.06 C53.55 34.69, 28.36 33.93, 8.51 34.06 M8.51 34.06 C4.61 35.05, -0.01 29.4, 0 25.54 M8.51 34.06 C3.45 32.95, 0.96 31.96, 0 25.54 M0 25.54 C-0.81 20.94, 1.04 13.92, 0 8.51 M0 25.54 C-0.51 20.03, -0.04 15.8, 0 8.51 M0 8.51 C0.83 1.24, 3.23 -0.4, 8.51 0 M0 8.51 C-0.24 3.17, 1.36 0.5, 8.51 0" stroke="#495057" stroke-width="1" fill="none"></path></g></svg>