<svg version="1.1" xmlns="http://www.w3.org/2000/svg" viewBox="0 0 140 54.056012669917266" width="140" height="54.056012669917266">
  <!-- svg-source:excalidraw -->
  
  <defs>
    <style class="style-fonts">
      @font-face {
        font-family: "Virgil";
        src: url("https://excalidraw.com/Virgil.woff2");
      }
      @font-face {
        font-family: "Cascadia";
        src: url("https://excalidraw.com/Cascadia.woff2");
      }
    </style>
  </defs>
  <g stroke-linecap="round" transform="translate(10 10) rotate(0 60 17.028006334958633)"><path d="M2.27 1.97 C2.27 1.97, 2.27 1.97, 2.27 1.97 M2.27 1.97 C2.27 1.97, 2.27 1.97, 2.27 1.97 M1.35 9.12 C2.78 6.85, 3.87 4.54, 9.22 0.07 M1.35 9.12 C3.91 5.5, 6.79 3.28, 9.22 0.07 M1.09 15.52 C5.22 12.74, 7.02 7.38, 14.21 0.43 M1.09 15.52 C5.67 11.91, 7.61 7.16, 14.21 0.43 M1.48 21.16 C4.67 16, 9.39 9.63, 19.2 0.79 M1.48 21.16 C6.98 14.48, 14.22 6.81, 19.2 0.79 M1.22 27.56 C10.34 16.79, 17.31 9.82, 24.84 0.39 M1.22 27.56 C9.75 17.79, 18.16 9.09, 24.84 0.39 M2.93 31.69 C10.1 23.14, 20.47 11.55, 29.83 0.75 M2.93 31.69 C10.71 21.8, 19.57 13.45, 29.83 0.75 M5.95 34.32 C15.9 22.46, 26.67 9.78, 35.47 0.36 M5.95 34.32 C16.09 23.58, 25.14 12.91, 35.47 0.36 M10.93 34.68 C20.4 21.06, 30.85 9.51, 40.46 0.72 M10.93 34.68 C20.38 24.46, 30.16 13.17, 40.46 0.72 M16.58 34.28 C27.02 21.62, 37.37 8.51, 46.1 0.32 M16.58 34.28 C27.19 22.34, 37.34 11.5, 46.1 0.32 M21.56 34.64 C33.32 22.84, 41.78 12.1, 51.09 0.68 M21.56 34.64 C27.44 26.36, 35.02 19.22, 51.09 0.68 M27.21 34.25 C35.58 24.68, 44.23 16.83, 56.73 0.29 M27.21 34.25 C34.62 25.99, 40.81 17.28, 56.73 0.29 M32.19 34.61 C40.56 23.42, 49.3 12.82, 61.72 0.65 M32.19 34.61 C42.03 24.26, 53.02 12.63, 61.72 0.65 M37.18 34.97 C47.58 21.7, 58.45 13.52, 66.7 1.01 M37.18 34.97 C46.11 23.9, 53.9 14.16, 66.7 1.01 M42.82 34.58 C48.87 27.3, 56.26 19.03, 72.35 0.61 M42.82 34.58 C49.65 24.85, 58.34 15.73, 72.35 0.61 M47.81 34.94 C54.61 29.13, 59.64 19.43, 77.33 0.97 M47.81 34.94 C56.18 23.63, 66.44 13.83, 77.33 0.97 M53.45 34.54 C58.94 26.07, 63.98 20.53, 82.98 0.58 M53.45 34.54 C62.08 25.82, 69.54 16.68, 82.98 0.58 M58.44 34.9 C69.74 21.02, 81.08 9.23, 87.96 0.94 M58.44 34.9 C69.16 23.17, 80.36 10.89, 87.96 0.94 M64.08 34.51 C76.61 21.39, 89.4 5.76, 93.61 0.54 M64.08 34.51 C74.46 23.88, 83.13 13.52, 93.61 0.54 M69.07 34.87 C79.78 24.31, 88.81 11.8, 98.59 0.9 M69.07 34.87 C79.28 22.97, 92 8.42, 98.59 0.9 M74.71 34.47 C85.31 25.18, 91.99 11.97, 104.24 0.51 M74.71 34.47 C82.51 26.14, 88.73 18.69, 104.24 0.51 M79.7 34.83 C87.81 26.43, 95.42 15.49, 109.22 0.87 M79.7 34.83 C86.78 28.9, 92.19 20.96, 109.22 0.87 M84.69 35.19 C93.37 26.63, 100.28 17.85, 114.21 1.23 M84.69 35.19 C94.36 24.06, 104.52 10.67, 114.21 1.23 M90.33 34.8 C98.99 26.52, 103.58 16.35, 117.89 3.1 M90.33 34.8 C100.06 24.79, 109.38 12.62, 117.89 3.1 M95.32 35.16 C103.85 24.56, 110.96 15.32, 120.9 5.72 M95.32 35.16 C102.59 27.68, 108.93 20.1, 120.9 5.72 M100.96 34.76 C108.62 27.57, 115.58 17.81, 120.64 12.12 M100.96 34.76 C108.25 26.87, 116.63 18.26, 120.64 12.12 M105.95 35.12 C107.8 31.97, 111.25 29.33, 121.04 17.77 M105.95 35.12 C108.71 30.58, 113.86 25.48, 121.04 17.77 M111.59 34.73 C114.1 32.89, 115.78 28.6, 120.78 24.16 M111.59 34.73 C114.35 30.95, 117.96 26.73, 120.78 24.16" stroke="#ced4da" stroke-width="0.5" fill="none"></path><path d="M8.51 0 M8.51 0 C42.43 0.99, 72.89 -0.31, 111.49 0 M8.51 0 C37.21 -1.43, 68.38 -1.68, 111.49 0 M111.49 0 C115.23 1.34, 119.99 3.27, 120 8.51 M111.49 0 C116.16 -0.25, 117.74 3.09, 120 8.51 M120 8.51 C119.39 15.26, 121.17 21.99, 120 25.54 M120 8.51 C120.81 13.66, 120.81 19.54, 120 25.54 M120 25.54 C119.54 32.71, 118.43 34.53, 111.49 34.06 M120 25.54 C119.72 30.2, 115.5 32.2, 111.49 34.06 M111.49 34.06 C85.14 32.31, 58.06 32.14, 8.51 34.06 M111.49 34.06 C74.96 34.94, 40.9 34.82, 8.51 34.06 M8.51 34.06 C4.52 32.22, 0.39 29.53, 0 25.54 M8.51 34.06 C3.71 34.74, 0.67 32.17, 0 25.54 M0 25.54 C0.36 22.2, -0.19 16.92, 0 8.51 M0 25.54 C-0.37 22.42, -0.27 18.27, 0 8.51 M0 8.51 C1.32 1.34, 4.51 1.81, 8.51 0 M0 8.51 C-0.42 1.67, 3.45 -0.6, 8.51 0" stroke="#495057" stroke-width="1" fill="none"></path></g></svg>