<svg version="1.1" xmlns="http://www.w3.org/2000/svg" viewBox="0 0 393.50264366819783 697.7350974052285" width="393.50264366819783" height="697.7350974052285">
  <!-- svg-source:excalidraw -->
  
  <defs>
    <style class="style-fonts">
      @font-face {
        font-family: "Virgil";
        src: url("https://excalidraw.com/Virgil.woff2");
      }
      @font-face {
        font-family: "Cascadia";
        src: url("https://excalidraw.com/Cascadia.woff2");
      }
    </style>
  </defs>
  <g stroke-linecap="round" transform="translate(10.11801407578605 10) rotate(0 186.6260481502302 338.8675487026143)"><path d="M0.39 -0.28 C135.58 1.16, 270.5 1.99, 372.23 0.59 M0.24 0.44 C138.87 -0.48, 278.35 -0.42, 372.99 0.11 M373.85 -0.34 C375.53 212.58, 375.37 426.34, 373.83 678.51 M373.36 0.4 C372.81 141.48, 372.83 283.55, 373.35 677.53 M373.16 676.83 C294.64 680.26, 218.29 680.57, 1.15 677.88 M372.84 677.29 C232.39 677.27, 90.47 677.11, -0.38 678.14 M0.17 678.3 C1.42 422.08, 0.49 167.7, -0.35 -0.64 M0.06 678.05 C0.52 455.57, 0.61 233.82, 0.05 0.25" stroke="#000000" stroke-width="2" fill="none"></path></g><g stroke-linecap="round" transform="translate(10 11.068385467589792) rotate(0 186.75132183409892 14.457831325301186)"><path d="M-0.28 0.39 C106.39 -0.61, 214.66 -1.74, 374.09 0.89 M0.44 -0.19 C92.11 -0.66, 184.72 -1.16, 373.61 0.09 M372.64 0.06 C372.87 10.74, 375.09 23.61, 375.44 27.09 M374.5 -0.47 C373.02 7.97, 374.18 17.06, 372.98 28 M372.6 28.29 C236.27 29.75, 98.82 29.9, 0.14 29.87 M373.05 29.33 C255.6 27.13, 137.07 26.99, 0.4 29.38 M1.42 29.67 C-1.88 19.87, -0.69 13.08, -1.59 0.56 M0.8 28.62 C-0.22 20.86, 0.8 13.04, 0.63 0.9" stroke="#000000" stroke-width="2" fill="none"></path></g><g transform="translate(173.3436145188207 15.74564125331915) rotate(0 19.031982421875 9.600000000000001)"><text x="19.031982421875" y="0" font-family="Virgil, Segoe UI Emoji" font-size="16px" fill="#000000" text-anchor="middle" style="white-space: pre;" direction="ltr" dominant-baseline="text-before-edge">10:47</text></g><g stroke-linecap="round" transform="translate(338.2072008486102 18.04816171543996) rotate(0 16.96428571428578 7.738095238095411)"><path d="M-1.73 0.19 C10.87 -1.78, 23.47 1.34, 32.88 0.04 M-0.72 0.38 C10.88 -0.33, 23.19 0.24, 34.76 0.38 M33.35 -0.26 C35 6.92, 35.36 10.19, 33.79 14.67 M33.67 -0.34 C34.72 5.25, 33.68 9.41, 34.46 16.15 M34.79 17.12 C25.38 17.18, 14.29 16.87, 0.34 14.65 M34.7 15.09 C26.57 15.09, 18.85 16.47, -0.41 15.12 M-1.53 14.27 C-0.72 9.83, -1.34 5.96, -0.36 1.02 M-0.03 15.44 C0.65 10.7, 0.36 6.43, -0.07 -0.06" stroke="#000000" stroke-width="2" fill="none"></path></g><g stroke-linecap="round" transform="translate(339.69529608670564 22.81006647734273) rotate(0 10.416666666666742 4.16666666666697)"><path d="M-1.04 -1.23 L21.13 1.11 L21.56 8.5 L0.17 8.63" stroke="none" stroke-width="0" fill="#000"></path><path d="M0.19 -0.38 C4.1 1.14, 12.98 -0.86, 20.87 0.78 M0.38 -0.63 C7.3 0.33, 15.61 0.98, 21.21 0.75 M20.69 0.61 C21.44 2.95, 20.08 4.21, 20.4 8.56 M20.65 0.34 C20.9 3.11, 20.41 6.94, 21.2 8.3 M22.47 9.72 C18 8.66, 12.97 8.76, -0.82 6.97 M20.45 8.84 C15.5 9.15, 12.16 8.08, -0.35 8.55 M-0.65 8 C-0.39 4.58, 0.2 1.95, 0.55 0.12 M-0.02 8.75 C0.08 5.43, 0.4 1.97, -0.03 0.24" stroke="transparent" stroke-width="2" fill="none"></path></g></svg>